<svg xmlns="http://www.w3.org/2000/svg" viewBox="0 0 512 512">
  <defs>
    <linearGradient id="bg" x1="0" y1="0" x2="1" y2="1">
      <stop offset="0" stop-color="#0b1f3a"/>
      <stop offset="1" stop-color="#1f4c87"/>
    </linearGradient>
  </defs>
  <rect width="512" height="512" rx="96" fill="url(#bg)"/>
  <circle cx="190" cy="200" r="78" fill="#ffd166"/>
  <path fill="#f5f8ff" d="M340 300c0-46-37-83-83-83-32 0-59 18-73 44-6-2-12-3-19-3-31 0-56 25-56 56 0 30 24 55 55 56h176c32 0 58-26 58-58 0-25-17-47-40-55 0-0 0 6 0 9-1 17-10 32-24 40z"/>
  <g stroke="#8ecbff" stroke-width="10" stroke-linecap="round">
    <line x1="170" y1="400" x2="150" y2="440"/>
    <line x1="230" y1="400" x2="210" y2="440"/>
    <line x1="290" y1="400" x2="270" y2="440"/>
    <line x1="350" y1="400" x2="330" y2="440"/>
  </g>
</svg>
